<svg xmlns="http://www.w3.org/2000/svg" xmlns:xlink="http://www.w3.org/1999/xlink" viewBox="0 0 16 16"><defs><linearGradient id="a" x1="3.52" y1="10.04" x2="7.1" y2="10.04" gradientTransform="matrix(1, 0, 0, -1, 0, 18)" gradientUnits="userSpaceOnUse"><stop offset="0" stop-color="#f6f6f6"/><stop offset="0.14" stop-color="#f6f6f6" stop-opacity="0.97"/><stop offset="0.36" stop-color="#f6f6f6" stop-opacity="0.89"/><stop offset="0.61" stop-color="#f6f6f6" stop-opacity="0.76"/><stop offset="0.9" stop-color="#f6f6f6" stop-opacity="0.57"/><stop offset="1" stop-color="#f6f6f6" stop-opacity="0.5"/></linearGradient></defs><rect width="16" height="16" rx="4.52" style="fill:#ec3425"/><path d="M5.31,12.56c1,0,1.79-.56,1.79-1.26V4.63c0-.7-.8-1.26-1.79-1.26s-1.79.56-1.79,1.26V11.3C3.52,12,4.32,12.56,5.31,12.56Z" style="fill:url(#a)"/><path d="M11.22,8.91l-1-.9,1-.9.63-.58a1.81,1.81,0,0,0,.22-2.48,1.78,1.78,0,0,0-2.5-.24l-.07.06L7.59,5.61l-.25.22L5.45,7.54a.64.64,0,0,0,0,.89l0,0L7.59,10.4h0l1.88,1.71a1.8,1.8,0,0,0,2.48,0,1.77,1.77,0,0,0,0-2.51l-.07-.06Z" style="fill:#fff"/></svg>