<svg width="16" height="73" viewBox="0 0 16 73" fill="none" xmlns="http://www.w3.org/2000/svg">
<path fill-rule="evenodd" clip-rule="evenodd" d="M12.7071 67.293C12.8946 67.4805 12.9999 67.7348 12.9999 68C12.9999 68.2652 12.8946 68.5195 12.7071 68.707L8.70708 72.707C8.51955 72.8945 8.26525 72.9998 8.00008 72.9998C7.73492 72.9998 7.48061 72.8945 7.29308 72.707L3.29308 68.707C3.19757 68.6148 3.12139 68.5044 3.06898 68.3824C3.01657 68.2604 2.98898 68.1292 2.98783 67.9964C2.98668 67.8636 3.01198 67.7319 3.06226 67.609C3.11254 67.4861 3.18679 67.3745 3.28069 67.2806C3.37458 67.1867 3.48623 67.1125 3.60913 67.0622C3.73202 67.0119 3.8637 66.9866 3.99648 66.9877C4.12926 66.9889 4.26048 67.0165 4.38249 67.0689C4.50449 67.1213 4.61483 67.1975 4.70708 67.293L7.00008 69.586V58C7.00008 57.7348 7.10544 57.4804 7.29297 57.2929C7.48051 57.1054 7.73486 57 8.00008 57C8.2653 57 8.51965 57.1054 8.70719 57.2929C8.89472 57.4804 9.00008 57.7348 9.00008 58V69.586L11.2931 67.293C11.4806 67.1055 11.7349 67.0002 12.0001 67.0002C12.2652 67.0002 12.5196 67.1055 12.7071 67.293Z" fill="#EC3425"/>
<line x1="8" y1="64" x2="8" y2="5" stroke="#EC3425" stroke-width="2"/>
<circle cx="8" cy="8" r="8" fill="#FECACA"/>
<path fill-rule="evenodd" clip-rule="evenodd" d="M4.58579 5.58579C5.36683 4.80474 6.63317 4.80474 7.41421 5.58579L8 6.17157L8.58579 5.58579C9.36684 4.80474 10.6332 4.80474 11.4142 5.58579C12.1953 6.36683 12.1953 7.63317 11.4142 8.41421L8 11.8284L4.58579 8.41421C3.80474 7.63317 3.80474 6.36683 4.58579 5.58579Z" fill="#EC3425"/>
</svg>
