<svg width="24" height="24" viewBox="0 0 24 24" fill="none" xmlns="http://www.w3.org/2000/svg">
<path fill-rule="evenodd" clip-rule="evenodd" d="M14.293 7.29292C14.4805 7.10545 14.7348 7.00013 15 7.00013C15.2652 7.00013 15.5195 7.10545 15.707 7.29292L19.707 11.2929C19.8945 11.4804 19.9998 11.7348 19.9998 11.9999C19.9998 12.2651 19.8945 12.5194 19.707 12.7069L15.707 16.7069C15.6148 16.8024 15.5044 16.8786 15.3824 16.931C15.2604 16.9834 15.1292 17.011 14.9964 17.0122C14.8636 17.0133 14.7319 16.988 14.609 16.9377C14.4861 16.8875 14.3745 16.8132 14.2806 16.7193C14.1867 16.6254 14.1125 16.5138 14.0622 16.3909C14.0119 16.268 13.9866 16.1363 13.9877 16.0035C13.9889 15.8707 14.0165 15.7395 14.0689 15.6175C14.1213 15.4955 14.1975 15.3852 14.293 15.2929L16.586 12.9999L5 12.9999C4.73478 12.9999 4.48043 12.8946 4.29289 12.707C4.10536 12.5195 4 12.2651 4 11.9999C4 11.7347 4.10536 11.4803 4.29289 11.2928C4.48043 11.1053 4.73478 10.9999 5 10.9999L16.586 10.9999L14.293 8.70692C14.1055 8.51939 14.0002 8.26508 14.0002 7.99992C14.0002 7.73475 14.1055 7.48045 14.293 7.29292Z" fill="#EC3425"/>
</svg>
