<svg width="234" height="226" viewBox="0 0 234 226" fill="none" xmlns="http://www.w3.org/2000/svg">
<g clip-path="url(#clip0_327_2841)">
<path d="M227.652 63.3045C223.234 58.421 217.055 55.4908 210.476 55.1583C203.896 54.8257 197.454 57.1179 192.565 61.5309L178.913 73.9463C178.175 70.1905 176.561 66.6616 174.203 63.6456C171.713 60.4869 168.492 57.9799 164.818 56.3401C161.144 54.7004 157.126 53.9768 153.11 54.2318L165.193 44.1358C167.793 42.0794 169.956 39.5235 171.553 36.6188C173.15 33.714 174.149 30.5191 174.491 27.2225C174.833 23.9259 174.511 20.5942 173.544 17.4239C172.577 14.2536 170.985 11.3087 168.861 8.76302C166.738 6.21729 164.126 4.12217 161.179 2.60116C158.232 1.08015 155.011 0.16403 151.704 -0.0931937C148.398 -0.350417 145.073 0.0564602 141.927 1.10345C138.78 2.15044 135.875 3.81636 133.383 6.003L75.6336 54.1636C61.1622 66.3061 46.6908 78.3803 35.8372 87.5895C10.9901 108.532 9.0105 110.237 9.0105 122.039C9.01577 127.863 11.0697 133.5 14.8132 137.965C18.5567 142.429 23.7514 145.436 29.4889 146.46C5.05134 165.97 3.48132 167.675 3.48132 179.477C3.48132 186.062 6.09914 192.378 10.7589 197.035C15.4186 201.691 21.7386 204.307 28.3285 204.307C34.7564 204.378 40.9563 201.929 45.5986 197.486C48.6021 194.962 60.07 185.821 75.4971 173.542C75.3837 175.223 75.3837 176.909 75.4971 178.59C75.4864 183.603 76.9945 188.502 79.8229 192.643C82.6514 196.783 86.6678 199.971 91.3437 201.787C96.0197 203.603 101.136 203.962 106.02 202.817C110.904 201.672 115.327 199.076 118.707 195.371C126.079 188.208 188.128 132.817 226.286 98.7769C228.739 96.5571 230.723 93.8702 232.122 90.8738C233.521 87.8774 234.308 84.6319 234.435 81.3277C234.562 78.0235 234.027 74.7272 232.863 71.6323C231.698 68.5373 229.926 65.706 227.652 63.3045Z" fill="white"/>
<path d="M198.095 46.8645C197.663 47.2773 197.088 47.5077 196.49 47.5077C195.893 47.5077 195.318 47.2773 194.886 46.8645L190.927 42.4987C190.717 42.2951 190.549 42.0513 190.435 41.7818C190.32 41.5122 190.261 41.2225 190.261 40.9297C190.261 40.6369 190.32 40.3472 190.435 40.0776C190.549 39.8081 190.717 39.5643 190.927 39.3607C191.348 38.9523 191.911 38.7239 192.497 38.7239C193.083 38.7239 193.647 38.9523 194.067 39.3607L198.026 43.7266C198.444 44.1378 198.685 44.6957 198.698 45.2817C198.711 45.8677 198.494 46.4355 198.095 46.8645Z" fill="#BEC2C9"/>
<path d="M208.743 58.6658C208.323 59.0742 207.76 59.3027 207.173 59.3027C206.587 59.3027 206.024 59.0742 205.603 58.6658L201.644 54.3C201.434 54.0965 201.266 53.8527 201.152 53.5831C201.037 53.3136 200.979 53.0238 200.979 52.731C200.979 52.4383 201.037 52.1485 201.152 51.879C201.266 51.6094 201.434 51.3656 201.644 51.1621C201.843 50.9427 202.085 50.7673 202.355 50.6473C202.626 50.5272 202.918 50.4652 203.214 50.4652C203.51 50.4652 203.803 50.5272 204.073 50.6473C204.344 50.7673 204.586 50.9427 204.784 51.1621L208.743 55.5279C209.152 55.9481 209.381 56.5109 209.381 57.0969C209.381 57.6828 209.152 58.2457 208.743 58.6658Z" fill="#BEC2C9"/>
<path d="M209.494 43.249L205.125 47.2056C204.927 47.425 204.685 47.6003 204.414 47.7204C204.144 47.8404 203.851 47.9024 203.555 47.9024C203.26 47.9024 202.967 47.8404 202.696 47.7204C202.426 47.6003 202.184 47.425 201.985 47.2056C201.577 46.7854 201.348 46.2225 201.348 45.6366C201.348 45.0506 201.577 44.4878 201.985 44.0676L206.422 40.1111C206.843 39.7027 207.406 39.4742 207.992 39.4742C208.579 39.4742 209.142 39.7027 209.562 40.1111C209.769 40.3192 209.931 40.5666 210.039 40.8386C210.148 41.1107 210.201 41.4017 210.194 41.6945C210.188 41.9873 210.123 42.2758 210.002 42.5429C209.882 42.8099 209.709 43.0501 209.494 43.249Z" fill="#BEC2C9"/>
<path d="M197.685 53.959L193.316 57.9155C192.891 58.3407 192.314 58.5796 191.712 58.5796C191.11 58.5796 190.533 58.3407 190.108 57.9155C189.682 57.4904 189.443 56.9137 189.443 56.3125C189.443 55.7112 189.682 55.1345 190.108 54.7094L194.477 50.6846C194.686 50.4722 194.936 50.3035 195.211 50.1884C195.487 50.0732 195.782 50.0139 196.081 50.0139C196.379 50.0139 196.675 50.0732 196.95 50.1884C197.226 50.3035 197.475 50.4722 197.685 50.6846C197.917 50.8895 198.103 51.1414 198.231 51.4237C198.358 51.706 198.424 52.0121 198.424 52.3218C198.424 52.6315 198.358 52.9377 198.231 53.2199C198.103 53.5022 197.917 53.7542 197.685 53.959Z" fill="#BEC2C9"/>
<path d="M6.21175 71.4905C5.89275 71.803 5.46386 71.978 5.01717 71.978C4.57048 71.978 4.1416 71.803 3.8226 71.4905L0.546048 67.8751C0.380886 67.716 0.249514 67.5253 0.159783 67.3143C0.0700519 67.1033 0.0238037 66.8764 0.0238037 66.6472C0.0238037 66.418 0.0700519 66.1911 0.159783 65.9801C0.249514 65.7691 0.380886 65.5784 0.546048 65.4193C0.876526 65.1025 1.31677 64.9255 1.77475 64.9255C2.23273 64.9255 2.67298 65.1025 3.00346 65.4193L6.28 69.0348C6.44083 69.1984 6.56697 69.3928 6.65089 69.6062C6.73481 69.8197 6.77478 70.0479 6.76841 70.2772C6.76204 70.5064 6.70945 70.7321 6.6138 70.9405C6.51816 71.149 6.38141 71.3361 6.21175 71.4905Z" fill="#BEC2C9"/>
<path d="M15.0857 81.2453C14.7478 81.5474 14.3104 81.7144 13.857 81.7144C13.4037 81.7144 12.9662 81.5474 12.6283 81.2453L9.35177 77.6299C9.03471 77.2996 8.85767 76.8597 8.85767 76.402C8.85767 75.9443 9.03471 75.5044 9.35177 75.1741C9.51096 75.0091 9.70182 74.8778 9.91293 74.7881C10.124 74.6984 10.3511 74.6522 10.5805 74.6522C10.8099 74.6522 11.0369 74.6984 11.248 74.7881C11.4591 74.8778 11.65 75.0091 11.8092 75.1741L15.0857 78.7896C15.4028 79.1198 15.5798 79.5598 15.5798 80.0174C15.5798 80.4751 15.4028 80.9151 15.0857 81.2453Z" fill="#BEC2C9"/>
<path d="M14.9493 69.1711L11.741 72.1044C11.4105 72.4213 10.9703 72.5982 10.5123 72.5982C10.0543 72.5982 9.61407 72.4213 9.2836 72.1044C9.11844 71.9453 8.98706 71.7546 8.89733 71.5436C8.8076 71.3327 8.76135 71.1058 8.76135 70.8766C8.76135 70.6473 8.8076 70.4204 8.89733 70.2094C8.98706 69.9985 9.11844 69.8077 9.2836 69.6487L12.6284 66.4425C12.9589 66.1256 13.3991 65.9487 13.8571 65.9487C14.3151 65.9487 14.7553 66.1256 15.0858 66.4425C15.2783 66.6187 15.4296 66.8353 15.5288 67.0767C15.6279 67.318 15.6726 67.5783 15.6596 67.8389C15.6465 68.0995 15.5761 68.354 15.4533 68.5843C15.3306 68.8146 15.1585 69.015 14.9493 69.1711Z" fill="#BEC2C9"/>
<path d="M6.28008 77.016L3.07179 79.881C2.75279 80.1935 2.32391 80.3685 1.87722 80.3685C1.43053 80.3685 1.00165 80.1935 0.682645 79.881C0.517483 79.722 0.38611 79.5312 0.296379 79.3202C0.206649 79.1093 0.1604 78.8824 0.1604 78.6532C0.1604 78.4239 0.206649 78.197 0.296379 77.9861C0.38611 77.7751 0.517483 77.5843 0.682645 77.4253L3.89093 74.5602C4.22141 74.2433 4.66166 74.0664 5.11964 74.0664C5.57761 74.0664 6.01786 74.2433 6.34834 74.5602C6.50916 74.7238 6.63531 74.9182 6.71923 75.1316C6.80315 75.3451 6.84312 75.5733 6.83675 75.8026C6.83037 76.0318 6.77779 76.2575 6.68214 76.466C6.58649 76.6744 6.44974 76.8615 6.28008 77.016Z" fill="#BEC2C9"/>
<path d="M201.508 152.804C201.241 153.058 200.887 153.2 200.518 153.2C200.149 153.2 199.795 153.058 199.528 152.804L196.934 150.212C196.69 149.94 196.563 149.583 196.582 149.219C196.602 148.854 196.765 148.512 197.037 148.268C197.308 148.023 197.666 147.897 198.031 147.916C198.395 147.935 198.738 148.099 198.982 148.37L201.371 151.03C201.616 151.253 201.767 151.56 201.792 151.89C201.817 152.22 201.716 152.547 201.508 152.804Z" fill="#BEC2C9"/>
<path d="M207.992 160.035C207.871 160.167 207.723 160.273 207.559 160.345C207.394 160.418 207.216 160.455 207.037 160.455C206.857 160.455 206.679 160.418 206.515 160.345C206.35 160.273 206.203 160.167 206.081 160.035L203.76 157.033C203.628 156.912 203.522 156.764 203.45 156.6C203.377 156.436 203.34 156.258 203.34 156.078C203.34 155.899 203.377 155.721 203.45 155.557C203.522 155.392 203.628 155.245 203.76 155.123C204.015 154.873 204.359 154.733 204.716 154.733C205.073 154.733 205.416 154.873 205.672 155.123L208.129 157.852C208.291 157.989 208.419 158.163 208.502 158.358C208.585 158.554 208.622 158.766 208.609 158.978C208.595 159.19 208.533 159.396 208.426 159.579C208.319 159.763 208.17 159.919 207.992 160.035Z" fill="#BEC2C9"/>
<path d="M208.47 150.621L205.808 153.009C205.538 153.198 205.209 153.284 204.881 153.249C204.553 153.215 204.249 153.063 204.024 152.822C203.8 152.581 203.67 152.267 203.659 151.937C203.648 151.608 203.757 151.286 203.965 151.03L206.696 148.575C206.951 148.325 207.294 148.185 207.651 148.185C208.009 148.185 208.352 148.325 208.607 148.575C208.735 148.717 208.833 148.883 208.895 149.064C208.957 149.245 208.983 149.436 208.97 149.627C208.957 149.817 208.907 150.004 208.821 150.174C208.735 150.345 208.616 150.497 208.47 150.621Z" fill="#BEC2C9"/>
<path d="M201.234 157.033L198.572 159.421C198.317 159.671 197.974 159.811 197.617 159.811C197.259 159.811 196.916 159.671 196.661 159.421C196.421 159.147 196.289 158.796 196.289 158.432C196.289 158.068 196.421 157.716 196.661 157.443L199.391 155.055C199.513 154.923 199.661 154.817 199.825 154.745C199.99 154.673 200.167 154.635 200.347 154.635C200.527 154.635 200.704 154.673 200.869 154.745C201.034 154.817 201.181 154.923 201.303 155.055C201.548 155.33 201.678 155.69 201.665 156.058C201.653 156.427 201.498 156.776 201.234 157.033Z" fill="#BEC2C9"/>
<path d="M56.8617 188.072L60.2065 187.39C60.4082 187.403 60.6106 187.377 60.8021 187.312C60.9936 187.247 61.1704 187.146 61.3226 187.012C61.4747 186.879 61.5991 186.718 61.6887 186.537C61.7783 186.356 61.8314 186.159 61.8448 185.957C61.8582 185.756 61.8318 185.553 61.7671 185.362C61.7023 185.171 61.6005 184.994 61.4674 184.842C61.3342 184.69 61.1725 184.566 60.9913 184.476C60.8101 184.386 60.613 184.333 60.4113 184.32L57.0665 183.638C55.3686 183.332 53.8049 182.514 52.5849 181.295C51.3649 180.076 50.5469 178.513 50.2404 176.816L49.5578 173.405C49.4851 173.07 49.2998 172.77 49.0328 172.555C48.7658 172.34 48.4331 172.223 48.0901 172.223C47.7471 172.223 47.4145 172.34 47.1475 172.555C46.8805 172.77 46.6952 173.07 46.6225 173.405L45.9399 176.816C45.6426 178.517 44.8276 180.085 43.606 181.305C42.3844 182.526 40.8156 183.341 39.1138 183.638L35.769 184.32C35.4472 184.418 35.1654 184.617 34.9652 184.887C34.7649 185.157 34.6569 185.485 34.6569 185.821C34.6569 186.157 34.7649 186.484 34.9652 186.754C35.1654 187.025 35.4472 187.223 35.769 187.321L39.1138 188.004C40.8156 188.301 42.3844 189.115 43.606 190.336C44.8276 191.557 45.6426 193.125 45.9399 194.825L46.6225 198.236C46.6952 198.571 46.8805 198.871 47.1475 199.086C47.4145 199.301 47.7471 199.419 48.0901 199.419C48.4331 199.419 48.7658 199.301 49.0328 199.086C49.2998 198.871 49.4851 198.571 49.5578 198.236L50.2404 194.825C50.5457 193.169 51.3391 191.641 52.5187 190.438C53.6984 189.235 55.2106 188.411 56.8617 188.072Z" fill="#9DA2A8"/>
<path d="M57.4761 26.536L61.094 25.7857C61.5103 25.7857 61.9097 25.6204 62.2041 25.3261C62.4985 25.0319 62.664 24.6328 62.664 24.2167C62.664 23.8006 62.4985 23.4015 62.2041 23.1073C61.9097 22.813 61.5103 22.6477 61.094 22.6477L57.4761 21.8973C55.8149 21.5095 54.2954 20.6652 53.0892 19.4597C51.8829 18.2543 51.0381 16.7358 50.65 15.0757L49.8991 11.4603C49.8245 11.1085 49.6312 10.793 49.3516 10.5666C49.072 10.3402 48.723 10.2167 48.3632 10.2167C48.0033 10.2167 47.6544 10.3402 47.3748 10.5666C47.0952 10.793 46.9019 11.1085 46.8273 11.4603L46.0764 15.0757C45.6957 16.7392 44.8533 18.2617 43.6458 19.4684C42.4384 20.675 40.9149 21.5169 39.2503 21.8973L35.6325 22.6477C35.2943 22.7484 34.9978 22.9555 34.7869 23.2382C34.5761 23.5209 34.4622 23.8641 34.4622 24.2167C34.4622 24.5693 34.5761 24.9124 34.7869 25.1951C34.9978 25.4778 35.2943 25.6849 35.6325 25.7857L39.2503 26.536C40.9596 26.9419 42.5144 27.8346 43.726 29.106C44.9377 30.3774 45.7542 31.9728 46.0764 33.6987L46.8273 37.3142C46.9019 37.666 47.0952 37.9815 47.3748 38.2079C47.6544 38.4342 48.0033 38.5578 48.3632 38.5578C48.723 38.5578 49.072 38.4342 49.3516 38.2079C49.6312 37.9815 49.8245 37.666 49.8991 37.3142L50.65 33.6987C50.9803 31.9762 51.7995 30.385 53.0098 29.115C54.2202 27.845 55.7706 26.9497 57.4761 26.536Z" fill="#9DA2A8"/>
<path d="M159.8 219.519L161.711 219.11C161.897 219.057 162.06 218.945 162.176 218.792C162.292 218.638 162.355 218.45 162.355 218.257C162.355 218.065 162.292 217.877 162.176 217.723C162.06 217.57 161.897 217.458 161.711 217.405L159.8 216.995C158.854 216.789 157.988 216.311 157.309 215.62C156.63 214.93 156.167 214.056 155.977 213.107L155.568 211.129C155.568 210.912 155.481 210.704 155.328 210.55C155.174 210.397 154.966 210.31 154.749 210.31C154.531 210.31 154.323 210.397 154.169 210.55C154.016 210.704 153.93 210.912 153.93 211.129L153.52 213.107C153.33 214.056 152.867 214.93 152.188 215.62C151.509 216.311 150.644 216.789 149.697 216.995L147.786 217.405C147.601 217.458 147.437 217.57 147.321 217.723C147.205 217.877 147.142 218.065 147.142 218.257C147.142 218.45 147.205 218.638 147.321 218.792C147.437 218.945 147.601 219.057 147.786 219.11L149.697 219.519C150.638 219.713 151.502 220.178 152.181 220.857C152.861 221.536 153.326 222.399 153.52 223.34L153.93 225.318C153.93 225.535 154.016 225.743 154.169 225.897C154.323 226.05 154.531 226.136 154.749 226.136C154.966 226.136 155.174 226.05 155.328 225.897C155.481 225.743 155.568 225.535 155.568 225.318L155.977 223.34C156.171 222.399 156.636 221.536 157.316 220.857C157.995 220.178 158.859 219.713 159.8 219.519Z" fill="#9DA2A8"/>
<path d="M117 172.382L37.4755 93.115H196.524L117 172.382Z" fill="#BEC2C9"/>
<path d="M117 172.382L90.105 93.115H143.895L117 172.382Z" fill="#9DA2A8"/>
<path d="M196.524 93.115H37.4755L64.3022 48.2288H169.629L196.524 93.115Z" fill="#9DA2A8"/>
<path d="M196.524 93.115H143.485L169.971 48.2288L196.524 93.115Z" fill="#D1D5DB"/>
<path d="M143.485 93.115H90.5146L117 48.2288L143.485 93.115Z" fill="#D1D5DB"/>
<path d="M90.5146 93.115H37.4755L63.9609 48.2288L90.5146 93.115Z" fill="#D1D5DB"/>
</g>
<defs>
<clipPath id="clip0_327_2841">
<rect width="234" height="226" fill="white"/>
</clipPath>
</defs>
</svg>
