<svg width="80" height="18" viewBox="0 0 80 18" fill="none" xmlns="http://www.w3.org/2000/svg">
<g clip-path="url(#clip0_327_2988)">
<path d="M30.1754 4.20256V14.2061H27.1012V4.20256H23.1318V1.34698H34.147V4.20256H30.1754Z" fill="#5A6468"/>
<path d="M46.7719 14.2061H43.6933V9.38391H38.629V14.2061H35.5374V1.34698H38.629V6.51037H43.6933V1.34698H46.7676L46.7719 14.2061Z" fill="#5A6468"/>
<path d="M52.0601 14.2061H48.9663V1.34698H52.0601V14.2061Z" fill="#5A6468"/>
<path d="M65.691 14.2061H63.312L57.3482 7.15243V14.2061H54.2544V1.34698H56.616L62.6168 8.58919V1.34698H65.691V14.2061Z" fill="#5A6468"/>
<path d="M70.9793 11.5952V14.2061H67.8855V1.34698H70.9793V7.18385L75.9372 1.34698H79.5981L74.8574 6.98181L80 14.2061H76.2305L72.7543 9.47819L70.9793 11.5952Z" fill="#5A6468"/>
<path d="M17.7545 1.26166C17.0671 0.800675 16.3111 0.459397 15.5167 0.251436C14.882 0.0839087 14.2295 -0.000562959 13.5744 2.82333e-06C13.3333 2.82333e-06 13.0943 0.0112309 12.8575 0.0314354C13.2941 0.16231 13.7159 0.341445 14.1154 0.565734L14.1784 0.603895L14.2414 0.642062L14.3327 0.695938L14.4217 0.752062L14.4717 0.785735C14.5391 0.828389 14.6042 0.875536 14.6694 0.92268L14.7259 0.960841L14.8432 1.05064C14.882 1.0773 14.919 1.10654 14.954 1.13819C14.9611 1.14065 14.9672 1.14537 14.9714 1.15166L15.0518 1.21677L15.0648 1.22799L15.1191 1.27514C15.1735 1.32228 15.2278 1.36942 15.2799 1.41881L15.3103 1.44575C15.4081 1.53555 15.5015 1.63208 15.5949 1.72862L15.6362 1.77576L15.671 1.81168L15.7101 1.85658C15.7213 1.8667 15.7315 1.87798 15.7405 1.89025L15.7861 1.93964L15.8426 2.00699L15.91 2.08781L15.986 2.18434L16.0577 2.27638C16.1012 2.33475 16.1446 2.39536 16.1859 2.45598L16.2315 2.51884L16.2967 2.61537L16.3423 2.68721L16.3771 2.73884C16.3966 2.77252 16.4184 2.80619 16.4379 2.84211C16.4575 2.87803 16.477 2.90497 16.4944 2.9364C16.6447 3.19494 16.7768 3.46427 16.8898 3.74234L16.9224 3.82091C16.9224 3.84111 16.9376 3.86356 16.9463 3.88377C16.9876 3.99377 17.0289 4.10826 17.0636 4.21826L17.0832 4.27887L17.0984 4.32826C17.0984 4.3552 17.1158 4.38215 17.1223 4.40909C17.1288 4.43602 17.1484 4.50112 17.1592 4.54602C17.1656 4.56185 17.17 4.57845 17.1723 4.59541C17.1723 4.60664 17.1723 4.61786 17.1831 4.62909L17.2027 4.71215L17.2157 4.77052L17.2288 4.82664C17.2288 4.85583 17.2396 4.88501 17.2461 4.9142C17.2525 4.93708 17.2575 4.96032 17.2613 4.98379L17.2744 5.05563C17.2744 5.08482 17.2744 5.11175 17.2896 5.13869C17.3048 5.16563 17.3004 5.21053 17.307 5.24645C17.3058 5.25689 17.3058 5.26744 17.307 5.27788C17.307 5.31829 17.3178 5.35645 17.3222 5.39461C17.3265 5.43278 17.3222 5.44401 17.3222 5.4687C17.3222 5.4934 17.3222 5.52707 17.3222 5.55625V5.62809C17.3222 5.65952 17.3222 5.69319 17.3222 5.72462V5.81443V5.90871C17.3222 6.02769 17.3222 6.14667 17.3222 6.26566C17.3513 7.15548 17.2026 8.04196 16.8855 8.8698C16.7041 9.62288 16.2906 10.2946 15.7075 10.7837C15.1244 11.2728 14.4032 11.5528 13.6526 11.5814C12.9021 11.6101 12.1629 11.3858 11.5464 10.9424C10.93 10.4991 10.4698 9.86069 10.2351 9.12348C10.532 10.4113 11.2017 11.575 12.1551 12.4594C13.1084 13.3438 14.3 13.9069 15.571 14.0736C15.9513 14.0736 16.2989 14.0938 16.6161 14.1207C17.1301 14.1567 17.6395 14.2447 18.1369 14.3834C18.5039 14.1055 18.845 13.7928 19.1559 13.4495C19.2515 13.3462 19.3449 13.2385 19.434 13.1285C19.8473 12.6203 20.1963 12.0598 20.4725 11.4605C21.2702 9.70371 21.4337 7.71005 20.9332 5.83967C20.4328 3.96929 19.3015 2.3455 17.7437 1.26166H17.7545Z" fill="url(#paint0_linear_327_2988)"/>
<path d="M18.1153 14.1634C18.0706 14.163 18.0261 14.157 17.9828 14.1454H17.7873L15.5365 14.0264C14.2726 13.8581 13.0883 13.296 12.1412 12.4149C11.1942 11.5338 10.5294 10.3755 10.2353 9.09427C9.95542 8.19925 10.0278 7.22637 10.4369 6.38611C10.8459 5.54585 11.5587 4.90578 12.4209 4.60437C11.7366 4.72143 11.0758 4.95508 10.4656 5.29581C10.2831 5.39683 10.1071 5.52031 9.93545 5.62807C9.08909 6.22245 8.3966 7.02212 7.91861 7.95709C7.44062 8.89207 7.1917 9.93384 7.19361 10.9913C7.19361 11.1102 7.19361 11.2292 7.19361 11.346C7.22203 11.8913 7.31767 12.4307 7.47823 12.9511C8.21744 13.8704 9.14562 14.6079 10.1953 15.11C11.2449 15.6121 12.3897 15.8662 13.5463 15.8538C14.3453 16.111 15.0988 16.4999 15.7776 17.0055C16.525 17.5353 17.066 18 17.7981 18C17.9813 17.9988 18.1632 17.9678 18.337 17.9079V17.9079C18.6323 17.803 18.8999 17.6281 19.1183 17.3974C19.3367 17.1666 19.4999 16.8864 19.5949 16.5789C19.6393 16.4106 19.662 16.237 19.6622 16.0626C19.6625 15.6084 19.5074 15.1687 19.2244 14.8212C18.9413 14.4736 18.5485 14.2407 18.1153 14.1634Z" fill="url(#paint1_linear_327_2988)"/>
<path d="M12.4079 4.60441C13.0008 4.39263 13.6383 4.35155 14.252 4.48559C14.8658 4.61962 15.4327 4.92371 15.8919 5.36527C16.3512 5.80682 16.6855 6.36919 16.859 6.9921C17.0326 7.61501 17.0388 8.27497 16.877 8.90125C17.2274 8.07461 17.4072 7.18158 17.4049 6.27914C17.4049 6.16016 17.4049 6.04118 17.4049 5.9222V5.83015V5.74036C17.4049 5.70668 17.4049 5.67525 17.4049 5.64158V5.57198C17.4049 5.54056 17.4049 5.51137 17.3941 5.48219C17.3832 5.453 17.3941 5.4328 17.3941 5.4081C17.3941 5.38341 17.3941 5.33178 17.3789 5.29361C17.3779 5.28316 17.3779 5.27264 17.3789 5.26218C17.3789 5.22626 17.368 5.19034 17.3615 5.15218C17.355 5.11402 17.3615 5.0983 17.3463 5.07136L17.3332 4.99728C17.3332 4.97483 17.3332 4.95013 17.318 4.92769C17.3028 4.90524 17.3072 4.86931 17.3006 4.84013L17.2876 4.78401L17.2746 4.72339L17.255 4.64258C17.254 4.63063 17.254 4.61861 17.255 4.60666L17.242 4.55727L17.2029 4.42257C17.2029 4.39563 17.1877 4.36645 17.179 4.33951C17.1703 4.31257 17.179 4.30808 17.1638 4.29012L17.1442 4.2295C17.1095 4.11726 17.0703 4.00501 17.0269 3.89501C17.0269 3.8748 17.0117 3.8546 17.003 3.83215L16.9704 3.75357C16.8574 3.47551 16.7253 3.20618 16.575 2.94764C16.5576 2.91621 16.5381 2.88478 16.5185 2.85335L16.4577 2.75233L16.4229 2.69845L16.3773 2.62661L16.3121 2.53008L16.2687 2.46722L16.1383 2.28762L16.0666 2.19558L15.9906 2.09905L15.9232 2.01823C15.9037 1.99578 15.8863 1.97333 15.8667 1.95313L15.8211 1.90149L15.7907 1.86782C15.7907 1.8521 15.7646 1.83863 15.7516 1.82292L15.719 1.787L15.6755 1.73986C15.5843 1.64332 15.4887 1.54904 15.3909 1.457L15.3605 1.43005C15.3084 1.38066 15.254 1.33352 15.2019 1.28863C15.1842 1.27157 15.1653 1.25581 15.1454 1.24148V1.24148L15.1324 1.22801L15.052 1.16291L15.0368 1.14943L14.9238 1.06188L14.8065 0.974327L14.7522 0.93392C14.687 0.886776 14.6196 0.84188 14.5523 0.796981L14.5023 0.765549C14.4741 0.745344 14.4437 0.727384 14.4132 0.709425L14.3242 0.655548L14.259 0.617381L14.196 0.581461C13.797 0.355513 13.3751 0.175588 12.938 0.0449219C8.92739 0.404114 5.98567 3.75806 5.90094 8.02571C5.88319 8.7711 5.97028 9.51521 6.15948 10.2347C6.43075 11.2522 6.90513 12.1997 7.55212 13.0162C7.39072 12.493 7.29507 11.9505 7.26751 11.4021C7.26751 11.2831 7.26751 11.1642 7.26751 11.0452C7.26796 9.98182 7.52048 8.93477 8.00299 7.99554C8.4855 7.05631 9.18331 6.2535 10.0354 5.65729C10.2071 5.53607 10.3852 5.4328 10.5677 5.32055C11.1413 4.98423 11.7622 4.7426 12.4079 4.60441V4.60441Z" fill="url(#paint2_linear_327_2988)"/>
<path d="M2.05096 15.7124C2.59548 15.7124 3.1177 15.4889 3.50273 15.091C3.88777 14.6932 4.10408 14.1536 4.10408 13.5909V2.35942C4.08674 1.80901 3.86295 1.28713 3.48002 0.90411C3.09708 0.521089 2.585 0.306946 2.05205 0.306946C1.51909 0.306946 1.00701 0.521089 0.624075 0.90411C0.241137 1.28713 0.0173452 1.80901 1.03504e-05 2.35942V13.5842C-0.000846898 13.8631 0.0515535 14.1395 0.154213 14.3976C0.256872 14.6556 0.407775 14.8902 0.59828 15.0878C0.788785 15.2855 1.01515 15.4424 1.26442 15.5496C1.51369 15.6568 1.78097 15.7121 2.05096 15.7124V15.7124Z" fill="url(#paint3_linear_327_2988)"/>
<path opacity="0.2" d="M3.69344 12.7042V2.79497C3.69344 1.80719 2.68752 0.999006 1.44696 0.999006C1.04898 0.996717 0.655301 1.08405 0.293303 1.25493C0.101826 1.58286 0.000427691 1.9585 0 2.34149V13.5842C0.000518378 13.7614 0.022414 13.9379 0.0651791 14.1095C0.484464 14.3618 0.961759 14.4929 1.44696 14.4889C2.68752 14.4956 3.69344 13.6942 3.69344 12.7042Z" fill="url(#paint4_linear_327_2988)"/>
<path opacity="0.2" d="M12.5338 4.56849C12.8564 4.46726 13.1917 4.41582 13.5288 4.41583C14.2628 4.41763 14.9775 4.65948 15.5703 5.10671C16.1631 5.55395 16.6038 6.18361 16.829 6.90548C16.6916 5.98884 16.3666 5.113 15.8758 4.33635C15.3849 3.55971 14.7395 2.90011 13.9825 2.40152C13.2255 1.90294 12.3744 1.57682 11.4858 1.44492C10.5972 1.31302 9.69166 1.37836 8.82945 1.63659C7.91093 2.39895 7.16808 3.36295 6.65477 4.4587C6.14146 5.55445 5.87054 6.75449 5.86166 7.97183C5.84378 8.71649 5.93088 9.45987 6.1202 10.1786C6.39022 11.1961 6.86392 12.1437 7.51068 12.9601C7.35116 12.4372 7.25555 11.8957 7.22606 11.3482C7.22606 11.2293 7.22606 11.1103 7.22606 10.989C7.22627 9.92589 7.47846 8.87897 7.96058 7.93976C8.4427 7.00055 9.14009 6.19763 9.9918 5.60117C10.1616 5.48428 10.3371 5.37638 10.5176 5.27789C11.1455 4.92427 11.8274 4.68433 12.5338 4.56849V4.56849Z" fill="url(#paint5_linear_327_2988)"/>
<path opacity="0.2" d="M18.415 14.2442C18.3176 14.2081 18.2173 14.181 18.1152 14.1634C18.0707 14.1625 18.0263 14.1573 17.9827 14.1477L17.785 14.1364L15.5363 14.0174C14.4724 13.8801 13.4611 13.4601 12.6011 12.7984C11.4147 11.8903 10.5768 10.5785 10.2351 9.09428C10.1256 8.74013 10.0699 8.37055 10.07 7.99874C10.0699 7.46031 10.1888 6.92897 10.4176 6.44524L10.4329 6.40932C10.4611 6.3532 10.4893 6.29483 10.5198 6.2387C10.5502 6.18258 10.5915 6.11074 10.6327 6.04788C10.674 5.98502 10.7044 5.94012 10.7414 5.88849L10.7566 5.86379C10.9402 5.61156 11.155 5.38515 11.3953 5.19031C10.4663 5.7519 9.71074 6.57464 9.21668 7.56272C8.72261 8.5508 8.51034 9.66358 8.60459 10.7715C8.69883 11.8794 9.09571 12.9368 9.74902 13.8207C10.4023 14.7046 11.2852 15.3785 12.2948 15.764L12.6076 15.8067C12.9213 15.8448 13.2369 15.8635 13.5527 15.8628C13.8069 15.9436 14.0394 16.0312 14.2567 16.1255C14.7921 16.3656 15.3018 16.6628 15.7775 17.0122C16.5249 17.542 17.0658 18.0067 17.798 18.0067C17.9811 18.0063 18.1629 17.976 18.3368 17.9169V17.9169C18.6325 17.8121 18.9004 17.6373 19.1192 17.4066C19.3379 17.1759 19.5015 16.8955 19.5969 16.5879C19.6415 16.4197 19.6642 16.246 19.6643 16.0716C19.6664 15.6704 19.5472 15.2786 19.3232 14.951C19.0992 14.6233 18.7817 14.3762 18.415 14.2442V14.2442Z" fill="url(#paint6_linear_327_2988)"/>
<path opacity="0.2" d="M17.7655 1.28412C17.0774 0.824449 16.3217 0.483268 15.5277 0.273897C14.893 0.10637 14.2405 0.021898 13.5854 0.0224638C13.3421 0.0224638 13.1031 0.0336918 12.8685 0.0538963C13.3045 0.184725 13.7255 0.363859 14.1242 0.588188L14.1894 0.626356L14.2524 0.664523C14.2828 0.680237 14.3132 0.70044 14.3415 0.718399C14.3697 0.738604 14.4001 0.756563 14.4306 0.774523L14.4805 0.808196L14.6782 0.945141C14.6981 0.957049 14.717 0.97056 14.7347 0.985549C14.7738 1.01249 14.8129 1.04167 14.8521 1.0731L14.9629 1.16065L14.9802 1.17412C15.0085 1.19433 15.0346 1.21678 15.0606 1.23923L15.0758 1.25045L15.1301 1.29759C15.1845 1.34474 15.2388 1.39188 15.2909 1.44127L15.3192 1.46821C15.4169 1.56025 15.5125 1.65454 15.6038 1.75108L15.6472 1.79822L15.682 1.83414L15.7211 1.87903L15.7515 1.91271C15.7671 1.92887 15.7817 1.94611 15.795 1.96434C15.8149 1.98497 15.8338 2.0067 15.8515 2.02945L15.9188 2.11027L15.997 2.2068C16.0209 2.23823 16.0448 2.26742 16.0665 2.29885C16.0883 2.33027 16.1556 2.41782 16.1969 2.47844C16.2126 2.49846 16.2271 2.51945 16.2404 2.5413C16.2642 2.57273 16.286 2.6064 16.3055 2.63783L16.3533 2.70967L16.3859 2.76354C16.4076 2.79497 16.4272 2.82865 16.4489 2.86457L16.5054 2.95886C16.654 3.21837 16.7861 3.48758 16.9008 3.7648C16.9117 3.79174 16.9226 3.81642 16.9312 3.84336L16.9573 3.90623C16.9986 4.01623 17.0377 4.13072 17.0746 4.24072L17.0942 4.30134C17.0983 4.31811 17.1033 4.3346 17.1094 4.35072C17.1094 4.37766 17.1246 4.4046 17.1333 4.43379C17.142 4.46297 17.1594 4.52359 17.1702 4.56849L17.1833 4.61787C17.1833 4.6291 17.1833 4.64032 17.1833 4.65155L17.2028 4.73461C17.2089 4.75377 17.214 4.77326 17.218 4.79298C17.218 4.81318 17.218 4.83114 17.2289 4.8491L17.2484 4.93666L17.2615 5.00625C17.2615 5.03095 17.2723 5.05339 17.2767 5.07809L17.2897 5.16115C17.2897 5.19707 17.3028 5.23299 17.3071 5.27116C17.3081 5.28085 17.3081 5.29064 17.3071 5.30034C17.3071 5.34075 17.318 5.37891 17.3245 5.41708C17.331 5.45524 17.3245 5.46647 17.3245 5.49116C17.3245 5.51586 17.3245 5.54953 17.3245 5.57871V5.65055C17.3245 5.68198 17.3245 5.71565 17.3245 5.74708V5.83688C17.3245 5.86831 17.3245 5.89974 17.3245 5.93117C17.3245 6.05015 17.3245 6.16913 17.3245 6.28812C17.3252 7.21081 17.1356 8.12306 16.7683 8.9641C16.5651 9.69656 16.1408 10.3429 15.5574 10.8089C14.974 11.2749 14.2619 11.5364 13.5247 11.5552C12.7875 11.574 12.0637 11.3491 11.4588 10.9133C10.8538 10.4776 10.3993 9.85369 10.1614 9.13247C10.2976 9.73433 10.5171 10.3127 10.8132 10.8499C11.7056 11.5723 12.7702 12.0326 13.8947 12.1821C15.0191 12.3316 16.1618 12.1649 17.2022 11.6994C18.2426 11.2339 19.1422 10.487 19.8061 9.53742C20.47 8.58781 20.8737 7.47068 20.9745 6.30383C20.7849 5.29034 20.404 4.32537 19.8533 3.46407C19.3027 2.60277 18.5933 1.86201 17.7655 1.28412V1.28412Z" fill="url(#paint7_linear_327_2988)"/>
</g>
<defs>
<linearGradient id="paint0_linear_327_2988" x1="10.2395" y1="7.19282" x2="21.2285" y2="7.19282" gradientUnits="userSpaceOnUse">
<stop stop-color="#F35500"/>
<stop offset="1" stop-color="#F4A51C"/>
</linearGradient>
<linearGradient id="paint1_linear_327_2988" x1="7.18492" y1="11.3033" x2="19.6666" y2="11.3033" gradientUnits="userSpaceOnUse">
<stop stop-color="#4D8E00"/>
<stop offset="0.15" stop-color="#66A010"/>
<stop offset="0.37" stop-color="#83B421"/>
<stop offset="0.58" stop-color="#98C22E"/>
<stop offset="0.79" stop-color="#A4CB35"/>
<stop offset="1" stop-color="#A8CE38"/>
</linearGradient>
<linearGradient id="paint2_linear_327_2988" x1="5.82707" y1="6.51037" x2="17.4114" y2="6.51037" gradientUnits="userSpaceOnUse">
<stop stop-color="#EC3425"/>
<stop offset="1" stop-color="#8A0000"/>
</linearGradient>
<linearGradient id="paint3_linear_327_2988" x1="2.05313" y1="15.4699" x2="2.05313" y2="0.651014" gradientUnits="userSpaceOnUse">
<stop stop-color="#006EE0"/>
<stop offset="0.25" stop-color="#0371E0"/>
<stop offset="0.46" stop-color="#0E7BE2"/>
<stop offset="0.67" stop-color="#208CE4"/>
<stop offset="0.86" stop-color="#38A4E7"/>
<stop offset="1" stop-color="#50BAEA"/>
</linearGradient>
<linearGradient id="paint4_linear_327_2988" x1="1.84672" y1="1.21677" x2="1.84672" y2="14.1252" gradientUnits="userSpaceOnUse">
<stop stop-color="white"/>
<stop offset="1" stop-color="white" stop-opacity="0"/>
</linearGradient>
<linearGradient id="paint5_linear_327_2988" x1="11.3432" y1="1.49066" x2="11.3432" y2="13.9007" gradientUnits="userSpaceOnUse">
<stop stop-color="white"/>
<stop offset="0.01" stop-color="white" stop-opacity="0.98"/>
<stop offset="0.09" stop-color="white" stop-opacity="0.78"/>
<stop offset="0.17" stop-color="white" stop-opacity="0.59"/>
<stop offset="0.26" stop-color="white" stop-opacity="0.43"/>
<stop offset="0.35" stop-color="white" stop-opacity="0.3"/>
<stop offset="0.45" stop-color="white" stop-opacity="0.19"/>
<stop offset="0.55" stop-color="white" stop-opacity="0.11"/>
<stop offset="0.67" stop-color="white" stop-opacity="0.05"/>
<stop offset="0.8" stop-color="white" stop-opacity="0.01"/>
<stop offset="1" stop-color="white" stop-opacity="0"/>
</linearGradient>
<linearGradient id="paint6_linear_327_2988" x1="14.122" y1="4.71438" x2="14.122" y2="18.6622" gradientUnits="userSpaceOnUse">
<stop stop-color="white"/>
<stop offset="0.11" stop-color="white" stop-opacity="0.92"/>
<stop offset="0.32" stop-color="white" stop-opacity="0.73"/>
<stop offset="0.63" stop-color="white" stop-opacity="0.41"/>
<stop offset="1" stop-color="white" stop-opacity="0"/>
</linearGradient>
<linearGradient id="paint7_linear_327_2988" x1="10.2505" y1="6.13995" x2="21.0722" y2="6.13995" gradientUnits="userSpaceOnUse">
<stop stop-color="white" stop-opacity="0.26"/>
<stop offset="0.12" stop-color="white" stop-opacity="0.28"/>
<stop offset="0.27" stop-color="white" stop-opacity="0.34"/>
<stop offset="0.43" stop-color="white" stop-opacity="0.43"/>
<stop offset="0.6" stop-color="white" stop-opacity="0.56"/>
<stop offset="0.78" stop-color="white" stop-opacity="0.73"/>
<stop offset="0.96" stop-color="white" stop-opacity="0.94"/>
<stop offset="1" stop-color="white"/>
</linearGradient>
<clipPath id="clip0_327_2988">
<rect width="80" height="18" fill="white"/>
</clipPath>
</defs>
</svg>
