<svg width="320" height="141" viewBox="0 0 320 141" fill="none" xmlns="http://www.w3.org/2000/svg">
<g clip-path="url(#clip0_327_3845)">
<path d="M101.14 0H39.8603C17.8461 0 0 17.8461 0 39.8603V101.14C0 123.154 17.8461 141 39.8603 141H101.14C123.154 141 141 123.154 141 101.14V39.8603C141 17.8461 123.154 0 101.14 0Z" fill="white"/>
<path d="M46.8161 111.027C55.5078 111.027 62.5555 106.049 62.5555 99.9211V41.0676C62.5555 34.9397 55.5078 29.9729 46.8161 29.9729C38.1243 29.9729 31.0651 34.9397 31.0651 41.0676V99.9211C31.0651 106.049 38.1128 111.027 46.8161 111.027Z" fill="#EC3425"/>
<path d="M98.8862 78.4214L90.137 70.4884L98.8862 62.5669L104.796 57.2093C107.871 54.4208 109.712 50.5249 109.915 46.3787C110.118 42.2325 108.665 38.1756 105.876 35.1004C104.496 33.5778 102.829 32.342 100.97 31.4636C99.112 30.5852 97.0989 30.0816 95.0459 29.9812C90.8997 29.7785 86.8428 31.2312 83.7676 34.0197L66.8439 49.3683L48.0347 66.3954C47.4624 66.9138 47.005 67.5464 46.6919 68.2523C46.3789 68.9582 46.2171 69.7219 46.2171 70.4941C46.2171 71.2663 46.3789 72.0301 46.6919 72.736C47.005 73.4419 47.4624 74.0744 48.0347 74.5928L66.8095 91.62L83.7331 106.969C86.8128 109.762 90.876 111.217 95.0286 111.014C99.1813 110.812 103.083 108.968 105.876 105.888C108.67 102.808 110.125 98.745 109.922 94.5923C109.719 90.4397 107.875 86.5376 104.796 83.7445L98.8862 78.4214Z" fill="url(#paint0_linear_327_3845)"/>
<path d="M165.857 68.4764V74.133H156.659V43.0909H165.857V55.7377L176.675 43.0909H187.483L175.986 56.6L188.218 74.1215H177.308L169.731 63.9466L165.857 68.4764Z" fill="white"/>
<path d="M219.249 59.1179C219.249 69.2009 213.776 74.8229 204.303 74.8229C194.829 74.8229 189.357 69.2009 189.357 59.1179V43.1025H198.646V59.4398C198.646 63.6822 200.796 66.2346 204.314 66.2346C207.832 66.2346 209.971 63.6822 209.971 59.4398V43.1025H219.272L219.249 59.1179Z" fill="white"/>
<path d="M236.414 43.1025C241.434 43.1025 245.497 44.5166 248.601 47.3449C250.161 48.7578 251.39 50.4964 252.203 52.4376C253.015 54.3787 253.391 56.4749 253.303 58.5775C253.39 60.6917 253.014 62.7994 252.202 64.7533C251.389 66.7073 250.161 68.4605 248.601 69.8906C245.497 72.7189 241.434 74.133 236.414 74.133H223.365V43.0909L236.414 43.1025ZM236.414 66.0161C237.409 66.0495 238.399 65.8801 239.326 65.5184C240.253 65.1567 241.097 64.6102 241.806 63.9121C242.507 63.2155 243.059 62.383 243.426 61.4656C243.794 60.5483 243.97 59.5654 243.945 58.5775C243.976 57.6008 243.802 56.6284 243.433 55.7233C243.065 54.8182 242.511 54.0005 241.806 53.3233C241.096 52.6273 240.252 52.0829 239.325 51.7231C238.398 51.3634 237.408 51.1959 236.414 51.2308H232.54V66.0161H236.414Z" fill="white"/>
<path d="M273.021 42.4128C275.233 42.3354 277.437 42.7083 279.5 43.5087C281.564 44.3091 283.443 45.5204 285.024 47.069C286.566 48.5535 287.785 50.3416 288.602 52.3203C289.419 54.2991 289.818 56.4257 289.772 58.5661C289.82 60.7205 289.423 62.8617 288.606 64.8557C287.789 66.8497 286.57 68.6538 285.024 70.1552C281.721 73.1228 277.438 74.7645 272.998 74.7645C268.558 74.7645 264.275 73.1228 260.972 70.1552C259.432 68.6515 258.22 66.8459 257.411 64.8517C256.601 62.8574 256.213 60.7175 256.27 58.5661C256.216 56.4288 256.606 54.3036 257.416 52.3247C258.225 50.3458 259.436 48.5562 260.972 47.069C262.562 45.5196 264.449 44.3083 266.52 43.508C268.591 42.7077 270.802 42.3352 273.021 42.4128V42.4128ZM273.021 66.1887C274.011 66.2184 274.996 66.0346 275.908 65.6497C276.821 65.2648 277.64 64.6879 278.309 63.9582C279.662 62.5086 280.413 60.6002 280.413 58.6179C280.413 56.6356 279.662 54.7271 278.309 53.2775C277.62 52.5721 276.796 52.0117 275.887 51.6291C274.978 51.2464 274.001 51.0493 273.015 51.0493C272.029 51.0493 271.052 51.2464 270.143 51.6291C269.234 52.0117 268.41 52.5721 267.721 53.2775C266.376 54.7309 265.629 56.638 265.629 58.6179C265.629 60.5978 266.376 62.5049 267.721 63.9582C268.392 64.6894 269.213 65.2671 270.127 65.6521C271.042 66.037 272.029 66.22 273.021 66.1887V66.1887Z" fill="white"/>
<path d="M314.192 44.3788C315.771 45.2047 317.104 46.4325 318.057 47.9384C319.01 49.4443 319.548 51.1749 319.618 52.9555H310.352C310.209 52.0342 309.718 51.203 308.98 50.6337C308.241 50.0645 307.313 49.8008 306.385 49.8974C304.511 49.8974 303.235 50.6792 303.235 52.0013C303.235 53.151 303.959 53.6914 305.741 54.1053L310.812 55.3354C316.652 56.7496 319.894 59.3019 319.894 64.4641C319.944 65.9318 319.632 67.3892 318.987 68.7083C318.341 70.0274 317.382 71.1677 316.192 72.0292C313.778 73.9032 310.444 74.823 306.293 74.823C303.077 74.8948 299.9 74.1006 297.096 72.5236C295.58 71.5678 294.311 70.268 293.392 68.7298C292.474 67.1916 291.93 65.4583 291.807 63.6708H301.005C301.465 65.9702 303.304 67.1199 306.397 67.1199C308.627 67.1199 309.731 66.4761 309.731 65.154C309.731 64.2457 308.903 63.6478 307.305 63.2339L302.12 61.9923C295.911 60.4862 293.037 57.7039 293.037 52.7946C292.97 51.3438 293.248 49.8977 293.848 48.5748C294.447 47.2519 295.351 46.0898 296.486 45.1836C299.16 43.2098 302.434 42.2226 305.753 42.3898C308.686 42.3518 311.584 43.0347 314.192 44.3788Z" fill="white"/>
<path d="M173.353 101.772C173.376 102.547 173.208 103.315 172.863 104.009C172.518 104.703 172.007 105.301 171.375 105.75C169.825 106.826 167.96 107.356 166.075 107.256H156.877V87.1938H165.776C169.881 87.1938 172.376 89.1599 172.376 92.3216C172.412 93.3206 172.122 94.3042 171.549 95.1236C170.977 95.9431 170.153 96.5536 169.202 96.8628C170.388 97.0014 171.477 97.5859 172.247 98.4975C173.018 99.4092 173.413 100.58 173.353 101.772ZM159.671 95.9431H165.305C168.133 95.9431 169.72 94.7359 169.72 92.7009C169.72 90.6659 168.191 89.6887 165.5 89.6887H159.694L159.671 95.9431ZM165.949 104.784C168.869 104.784 170.547 103.428 170.547 101.45C170.547 99.4727 168.869 98.4494 165.949 98.4494H159.579V104.784H165.949Z" fill="white"/>
<path d="M181.688 114.396H178.825L181.746 107.889L174.847 93.4943H177.756L183.183 104.727L188.195 93.4943H191.058L181.688 114.396Z" fill="white"/>
<path d="M203.705 107.256H200.946V87.1938H203.739L203.705 107.256Z" fill="white"/>
<path d="M224.549 105.727L228.113 110.061L226.055 111.981L222.02 107.049C220.886 107.464 219.687 107.674 218.479 107.67C216.417 107.668 214.403 107.055 212.69 105.908C210.977 104.761 209.642 103.132 208.854 101.227C208.066 99.3224 207.861 97.2267 208.263 95.205C208.666 93.1832 209.659 91.3262 211.117 89.8686C212.574 88.4109 214.431 87.418 216.453 87.0153C218.475 86.6125 220.571 86.8181 222.475 87.6059C224.38 88.3937 226.009 89.7285 227.156 91.4416C228.303 93.1547 228.916 95.1692 228.918 97.2306C228.926 98.8937 228.533 100.534 227.773 102.013C227.012 103.492 225.907 104.766 224.549 105.727ZM223.836 102.784C225.25 101.289 226.037 99.3105 226.037 97.2536C226.037 95.1968 225.25 93.2179 223.836 91.7236C223.139 90.9967 222.302 90.4184 221.375 90.0234C220.449 89.6283 219.452 89.4246 218.444 89.4246C217.437 89.4246 216.44 89.6283 215.513 90.0234C214.587 90.4184 213.75 90.9967 213.052 91.7236C211.639 93.2179 210.851 95.1968 210.851 97.2536C210.851 99.3105 211.639 101.289 213.052 102.784C213.755 103.501 214.594 104.07 215.52 104.459C216.446 104.847 217.44 105.048 218.444 105.048C219.448 105.048 220.442 104.847 221.368 104.459C222.294 104.07 223.133 103.501 223.836 102.784V102.784Z" fill="white"/>
<path d="M239.794 89.8037V107.256H236.989V89.8037H229.769V87.1938H247.014V89.7807L239.794 89.8037Z" fill="white"/>
<path d="M266.766 107.256H263.938V98.6909H252.878V107.268H250.084V87.1938H252.878V96.0695H263.938V87.1938H266.766V107.256Z" fill="white"/>
<path d="M274.642 107.256H271.837V87.1938H274.642V107.256Z" fill="white"/>
<path d="M297.073 107.256H294.773L282.506 92.4021V107.256H279.712V87.1938H281.92L294.244 102.278V87.1938H297.073V107.256Z" fill="white"/>
<path d="M304.948 102.301V107.256H302.12V87.1937H304.925V98.4264L315.502 87.1937H318.952L310.605 96.2075L319.929 107.233H316.353L308.662 98.2999L304.948 102.301Z" fill="white"/>
</g>
<defs>
<linearGradient id="paint0_linear_327_3845" x1="47.4944" y1="69.6031" x2="116.511" y2="70.9138" gradientUnits="userSpaceOnUse">
<stop stop-color="#8A0000"/>
<stop offset="1" stop-color="#EC3425"/>
</linearGradient>
<clipPath id="clip0_327_3845">
<rect width="319.894" height="141" fill="white"/>
</clipPath>
</defs>
</svg>
