<svg width="83" height="38" viewBox="0 0 83 38" fill="none" xmlns="http://www.w3.org/2000/svg">
<g clip-path="url(#clip0_327_3003)">
<path d="M26.2418 0H10.3422C4.63035 0 0 4.80958 0 10.7425V27.2575C0 33.1904 4.63035 38 10.3422 38H26.2418C31.9536 38 36.584 33.1904 36.584 27.2575V10.7425C36.584 4.80958 31.9536 0 26.2418 0Z" fill="#EC3425"/>
<path d="M12.1468 29.8386C14.402 29.8386 16.2336 28.5 16.2336 26.8485V10.9873C16.2336 9.33579 14.402 7.99414 12.1468 7.99414C9.89164 7.99414 8.06006 9.33579 8.06006 10.9873V26.8485C8.06006 28.5 9.89164 29.8386 12.1468 29.8386Z" fill="url(#paint0_linear_327_3003)"/>
<path d="M25.6572 21.1535L23.3901 19.0155L25.6572 16.8775L27.1039 15.5142C27.8956 14.7848 28.3882 13.7681 28.4803 12.6731C28.5724 11.578 28.2571 10.488 27.5991 9.62704C27.2496 9.18634 26.8175 8.8239 26.3292 8.56167C25.8409 8.29944 25.3064 8.14288 24.7581 8.10145C24.2098 8.06003 23.6592 8.13461 23.1394 8.32068C22.6197 8.50675 22.1417 8.80043 21.7345 9.18396L17.3434 13.3174L16.7826 13.8472L12.4721 17.9124C12.3237 18.0519 12.2051 18.2221 12.1239 18.4121C12.0427 18.6021 12.0007 18.8076 12.0007 19.0155C12.0007 19.2234 12.0427 19.4289 12.1239 19.6189C12.2051 19.8089 12.3237 19.9791 12.4721 20.1186L17.3434 24.7105L21.6599 28.7634C22.4354 29.5104 23.457 29.9203 24.5146 29.9088C25.5722 29.8972 26.5853 29.4652 27.3456 28.7014C27.7345 28.2978 28.0404 27.8164 28.2447 27.2862C28.449 26.7561 28.5475 26.1884 28.5341 25.6175C28.5207 25.0466 28.3958 24.4845 28.1668 23.9654C27.9379 23.4462 27.6098 22.9808 27.2024 22.5974L25.6572 21.1535Z" fill="white"/>
<path d="M43.0334 16.326V17.8381H40.647V9.47211H43.0334V12.8805L45.8404 9.4876H48.6475L45.6644 13.1252L48.8354 17.8381H46.0075L44.0327 15.1052L43.0334 16.326Z" fill="#5A6468"/>
<path d="M56.8894 13.81C56.8894 16.5274 55.4665 18.0395 53.0115 18.0395C50.5565 18.0395 49.1335 16.5274 49.1335 13.81V9.48761H51.5498V13.8906C51.5498 15.0339 52.1046 15.7218 53.0175 15.7218C53.9303 15.7218 54.4732 15.0494 54.4732 13.8906V9.48761H56.8894V13.81Z" fill="#5A6468"/>
<path d="M61.3341 9.48759C62.6387 9.48759 63.6927 9.86871 64.4961 10.6309C64.9007 11.0111 65.2197 11.4791 65.4306 12.0018C65.6415 12.5244 65.739 13.0889 65.7162 13.6551C65.7386 14.2253 65.6411 14.7938 65.4304 15.3209C65.2197 15.848 64.9009 16.3211 64.4961 16.7071C63.7007 17.4693 62.6467 17.8504 61.3341 17.8504H57.9543V9.4845L61.3341 9.48759ZM61.3341 15.6691C61.5914 15.6798 61.8481 15.6355 62.0883 15.5389C62.3284 15.4422 62.5469 15.2954 62.7301 15.1074C62.9133 14.9194 63.0574 14.6943 63.1534 14.4461C63.2493 14.1978 63.2952 13.9318 63.288 13.6644C63.2957 13.4017 63.2503 13.1402 63.1547 12.8968C63.0592 12.6535 62.9156 12.4336 62.7332 12.2515C62.5492 12.0633 62.3303 11.916 62.0898 11.8185C61.8492 11.7211 61.5921 11.6754 61.3341 11.6844H60.3288V15.6691H61.3341Z" fill="#5A6468"/>
<path d="M70.8382 9.30172C71.4121 9.28088 71.984 9.38137 72.5194 9.59708C73.0547 9.8128 73.5423 10.1392 73.9525 10.5566C74.353 10.9564 74.6693 11.4383 74.8814 11.9716C75.0935 12.505 75.1967 13.0782 75.1845 13.6551C75.1973 14.2358 75.0944 14.8129 74.8824 15.3504C74.6704 15.8878 74.3538 16.374 73.9525 16.7784C73.0956 17.5782 71.9842 18.0206 70.8322 18.0206C69.6802 18.0206 68.5689 17.5782 67.712 16.7784C67.3123 16.3732 66.9977 15.8867 66.7877 15.3492C66.5777 14.8117 66.477 14.2349 66.4919 13.6551C66.4776 13.079 66.5787 12.5062 66.7887 11.9728C66.9988 11.4394 67.3131 10.9572 67.712 10.5566C68.1245 10.139 68.6142 9.81256 69.1515 9.59689C69.6888 9.38122 70.2625 9.28081 70.8382 9.30172V9.30172ZM70.8382 15.7094C71.0953 15.717 71.3509 15.667 71.5877 15.5627C71.8245 15.4585 72.0369 15.3024 72.2104 15.1052C72.561 14.715 72.756 14.2012 72.756 13.6675C72.756 13.1338 72.561 12.62 72.2104 12.2298C72.0324 12.0386 71.8191 11.8866 71.5834 11.7828C71.3477 11.679 71.0942 11.6255 70.8382 11.6255C70.5821 11.6255 70.3287 11.679 70.093 11.7828C69.8572 11.8866 69.644 12.0386 69.466 12.2298C69.1154 12.62 68.9204 13.1338 68.9204 13.6675C68.9204 14.2012 69.1154 14.715 69.466 15.1052C69.6395 15.3024 69.8519 15.4585 70.0887 15.5627C70.3255 15.667 70.5811 15.717 70.8382 15.7094Z" fill="#5A6468"/>
<path d="M81.5204 9.83152C81.9301 10.0541 82.276 10.385 82.5232 10.7909C82.7704 11.1967 82.9102 11.6631 82.9284 12.143H80.524C80.4884 11.894 80.3614 11.6691 80.1694 11.5154C79.9775 11.3617 79.7358 11.2912 79.4949 11.3188C79.0087 11.3188 78.6775 11.5264 78.6775 11.8858C78.6775 12.1957 78.8684 12.3382 79.3278 12.4497L80.6434 12.7813C82.1587 13.1624 82.9999 13.8534 82.9999 15.2415C83.0128 15.6375 82.9319 16.0307 82.7645 16.3867C82.597 16.7427 82.348 17.0506 82.0394 17.2834C81.413 17.7885 80.5479 18.0332 79.471 18.0332C78.6364 18.0528 77.8122 17.8387 77.0846 17.4135C76.6917 17.1556 76.3628 16.8052 76.1244 16.3907C75.886 15.9762 75.7449 15.5093 75.7124 15.0277H78.1167C78.2331 15.6474 78.6954 15.9572 79.5128 15.9572C80.0915 15.9572 80.3779 15.7868 80.3779 15.4305C80.3779 15.1826 80.1631 15.0246 79.7484 14.9131L78.4001 14.5691C76.7893 14.1632 76.0435 13.4134 76.0435 12.0903C76.0278 11.6972 76.1024 11.3059 76.2611 10.9487C76.4198 10.5915 76.6581 10.2786 76.9563 10.036C77.645 9.50814 78.4879 9.24328 79.3427 9.28618C80.1006 9.28082 80.8482 9.46804 81.5204 9.83152V9.83152Z" fill="#5A6468"/>
<path d="M44.9903 25.2993C44.9964 25.508 44.9528 25.7152 44.8633 25.9022C44.7738 26.0893 44.6411 26.2504 44.4772 26.3714C44.0742 26.6601 43.5909 26.8027 43.102 26.7773H40.7156V21.3735H43.0244C44.0894 21.3735 44.7397 21.9064 44.7397 22.7554C44.749 23.025 44.6733 23.2904 44.5242 23.5113C44.375 23.7322 44.1606 23.8965 43.9134 23.9793C44.2202 24.0173 44.5018 24.1746 44.7016 24.4194C44.9014 24.6643 45.0045 24.9786 44.9903 25.2993V25.2993ZM41.4434 23.7252H42.8962C43.63 23.7252 44.0417 23.3999 44.0417 22.8515C44.0417 22.303 43.6449 22.0428 42.9499 22.0428H41.4434V23.7252ZM43.0722 26.108C43.8299 26.108 44.2654 25.7455 44.2654 25.2125C44.2654 24.6796 43.8299 24.4007 43.0871 24.4007H41.4375V26.108H43.0722Z" fill="#96A3A8"/>
<path d="M47.1409 28.6983H46.3981L47.1558 26.9352L45.3511 23.059H46.1207L47.5257 26.0863L48.8263 23.059H49.5691L47.1409 28.6983Z" fill="#96A3A8"/>
<path d="M52.8535 26.7773H52.1287V21.3735H52.8535V26.7773Z" fill="#96A3A8"/>
<path d="M58.2617 26.3651L59.1864 27.5301L58.6495 28.0631L57.6024 26.7369C57.1936 26.8962 56.7535 26.9495 56.3203 26.8922C55.8871 26.8349 55.4739 26.6687 55.1166 26.408C54.7592 26.1473 54.4685 25.8 54.2696 25.3962C54.0707 24.9924 53.9696 24.5444 53.9751 24.0908C53.9684 23.7214 54.0349 23.3545 54.1704 23.0129C54.3059 22.6712 54.5074 22.3621 54.7626 22.1047C55.142 21.7123 55.6246 21.4453 56.1498 21.3372C56.6749 21.229 57.2191 21.2846 57.714 21.4969C58.2088 21.7091 58.6321 22.0687 58.9308 22.5302C59.2294 22.9918 59.3899 23.5347 59.3922 24.0908C59.3923 24.5361 59.2897 24.975 59.093 25.3706C58.8963 25.7663 58.6113 26.1073 58.2617 26.3651V26.3651ZM58.0797 25.5688C58.4456 25.1662 58.6494 24.6336 58.6494 24.08C58.6494 23.5264 58.4456 22.9937 58.0797 22.5911C57.8985 22.3952 57.681 22.2393 57.4404 22.1327C57.1997 22.0262 56.9408 21.9713 56.6792 21.9713C56.4176 21.9713 56.1587 22.0262 55.918 22.1327C55.6773 22.2393 55.4599 22.3952 55.2787 22.5911C54.9128 22.9937 54.709 23.5264 54.709 24.08C54.709 24.6336 54.9128 25.1662 55.2787 25.5688C55.4609 25.7628 55.6788 25.917 55.9193 26.0223C56.1598 26.1276 56.4182 26.1818 56.6792 26.1818C56.9402 26.1818 57.1986 26.1276 57.4391 26.0223C57.6796 25.917 57.8974 25.7628 58.0797 25.5688V25.5688Z" fill="#96A3A8"/>
<path d="M62.2291 22.0737V26.7773H61.5013V22.0737H59.6279V21.3735H64.1025V22.0737H62.2291Z" fill="#96A3A8"/>
<path d="M69.2154 26.7773H68.4935V24.4658H65.6238V26.7773H64.8989V21.3735H65.6238V23.7655H68.4935V21.3735H69.2273L69.2154 26.7773Z" fill="#96A3A8"/>
<path d="M71.2589 26.7773H70.531V21.3735H71.2589V26.7773Z" fill="#96A3A8"/>
<path d="M77.0786 26.7773H76.482L73.3021 22.774V26.7773H72.5742V21.3735H73.147L76.3448 25.4418V21.3735H77.0786V26.7773Z" fill="#96A3A8"/>
<path d="M79.1221 25.4418V26.7773H78.3943V21.3735H79.1221V24.4007L81.8665 21.3735H82.7465L80.5838 23.8058L83.0001 26.7773H82.0754L80.0767 24.3697L79.1221 25.4418Z" fill="#96A3A8"/>
</g>
<defs>
<linearGradient id="paint0_linear_327_3003" x1="8.06006" y1="18.9164" x2="16.2336" y2="18.9164" gradientUnits="userSpaceOnUse">
<stop stop-color="#F6F6F6"/>
<stop offset="0.14" stop-color="#F6F6F6" stop-opacity="0.97"/>
<stop offset="0.36" stop-color="#F6F6F6" stop-opacity="0.89"/>
<stop offset="0.61" stop-color="#F6F6F6" stop-opacity="0.76"/>
<stop offset="0.9" stop-color="#F6F6F6" stop-opacity="0.57"/>
<stop offset="1" stop-color="#F6F6F6" stop-opacity="0.5"/>
</linearGradient>
<clipPath id="clip0_327_3003">
<rect width="83" height="38" fill="white"/>
</clipPath>
</defs>
</svg>
